<?xml version="1.0" encoding="UTF-8" standalone="no"?>
<!DOCTYPE svg PUBLIC "-//W3C//DTD SVG 1.1//EN" "http://www.w3.org/Graphics/SVG/1.1/DTD/svg11.dtd">
<svg xmlns="http://www.w3.org/2000/svg" version="1.1" viewBox="0.00 0.00 481.00 519.00">
<path fill="#000000" d="
  M 204.89 87.54
  Q 205.21 82.27 209.37 78.88
  C 216.12 73.36 225.98 74.38 232.66 79.71
  A 0.41 0.41 0.0 0 0 233.31 79.50
  C 233.97 77.24 234.48 74.89 236.10 73.09
  Q 241.10 67.53 249.88 67.33
  Q 260.34 67.09 267.08 75.13
  Q 267.38 75.49 267.84 75.40
  C 277.16 73.68 283.40 75.53 291.09 79.69
  C 296.24 82.48 298.77 86.50 301.08 91.51
  A 0.72 0.72 0.0 0 0 301.90 91.90
  Q 310.09 89.91 318.37 93.49
  C 323.59 95.76 328.47 103.57 327.89 109.57
  Q 327.83 110.20 328.46 110.20
  Q 341.23 110.21 351.24 118.71
  C 359.02 125.32 362.50 135.84 358.16 145.49
  Q 357.94 145.96 358.41 146.19
  C 368.17 151.03 375.76 160.60 367.68 170.83
  Q 367.24 171.39 367.91 171.63
  Q 374.03 173.84 378.48 180.44
  Q 380.52 183.47 380.52 187.72
  C 380.51 194.13 375.13 199.70 369.43 201.69
  A 0.36 0.35 -38.0 0 0 369.35 202.32
  C 370.74 203.21 372.11 203.96 373.00 205.45
  C 376.58 211.46 377.62 216.93 373.45 223.39
  C 370.63 227.76 365.50 229.16 360.52 229.43
  Q 359.88 229.47 359.91 230.11
  C 360.27 238.38 355.29 242.83 348.29 245.16
  Q 347.57 245.40 347.83 246.12
  Q 348.62 248.30 349.85 250.09
  Q 355.88 258.84 360.55 266.79
  Q 363.65 272.05 367.02 277.13
  C 369.58 280.98 369.88 284.52 367.25 288.20
  C 364.89 291.50 359.77 291.86 356.30 290.55
  Q 353.80 289.61 352.34 287.01
  C 347.40 278.22 341.98 269.95 335.97 261.02
  Q 335.70 260.62 335.31 260.90
  Q 326.80 266.80 316.25 263.30
  A 0.34 0.34 0.0 0 0 315.80 263.62
  Q 315.78 266.55 314.40 269.20
  Q 309.87 277.94 299.88 278.30
  Q 288.17 278.73 282.41 271.09
  Q 282.07 270.64 281.64 271.00
  C 271.71 279.31 259.00 277.24 251.02 267.56
  Q 250.67 267.13 250.29 267.54
  Q 245.08 273.29 237.63 273.40
  Q 222.80 273.62 216.66 259.98
  Q 216.46 259.55 215.99 259.65
  Q 202.02 262.82 193.02 252.07
  Q 192.00 250.85 191.29 249.32
  Q 191.06 248.81 190.52 248.97
  Q 174.25 253.84 164.76 240.04
  Q 162.36 236.55 162.82 231.43
  Q 162.88 230.82 162.28 230.70
  Q 157.52 229.80 153.05 227.67
  Q 152.61 227.46 152.16 227.65
  Q 149.03 229.03 146.55 231.04
  C 142.56 234.27 138.15 237.04 133.89 239.92
  C 129.17 243.12 124.96 245.38 120.37 241.76
  C 115.34 237.79 116.01 230.84 121.17 227.42
  Q 126.58 223.83 132.01 219.82
  C 136.09 216.80 140.59 214.56 144.65 211.49
  A 1.28 1.26 -15.0 0 0 145.14 210.65
  Q 145.48 208.12 146.80 206.07
  Q 147.16 205.50 146.51 205.35
  C 140.82 204.00 135.83 202.07 132.84 196.70
  Q 128.46 188.83 132.45 181.26
  C 133.27 179.69 134.36 178.90 135.75 177.95
  Q 136.35 177.54 135.87 176.98
  Q 128.62 168.60 132.95 158.70
  C 134.76 154.56 140.92 152.20 144.90 151.32
  A 0.27 0.27 0.0 0 0 145.00 150.84
  Q 141.73 148.50 139.76 145.00
  Q 139.44 144.42 138.79 144.53
  Q 129.84 146.07 120.84 144.07
  Q 114.69 142.69 112.74 141.84
  Q 111.02 141.08 109.56 140.27
  Q 104.67 137.57 99.37 132.09
  Q 95.60 128.20 93.95 123.30
  Q 88.96 108.50 96.87 95.32
  Q 99.87 90.33 108.35 83.58
  C 109.75 82.47 111.40 81.41 113.08 80.81
  C 116.69 79.54 120.10 77.85 123.78 76.92
  Q 138.03 73.33 151.04 77.89
  A 0.62 0.62 0.0 0 0 151.76 77.65
  Q 154.00 74.30 156.57 71.24
  Q 159.04 68.31 162.15 66.21
  Q 167.29 62.73 172.52 59.63
  A 0.60 0.59 66.4 0 1 173.39 59.98
  C 176.61 70.68 174.42 79.56 168.23 88.24
  Q 167.88 88.72 168.26 89.19
  Q 170.86 92.40 172.31 96.12
  Q 172.65 96.99 172.88 96.08
  Q 175.20 87.06 184.47 84.01
  Q 194.33 80.77 204.19 87.87
  Q 204.85 88.34 204.89 87.54
  Z"
/>
</svg>
